<?xml version="1.0" encoding="UTF-8"?>
<svg width="200" height="200" viewBox="0 0 200 200" fill="none" xmlns="http://www.w3.org/2000/svg">
  <!-- Background Circle -->
  <circle cx="100" cy="100" r="90" fill="#61DAFB" opacity="0.1"/>
  
  <!-- React-like Orbits -->
  <ellipse cx="100" cy="100" rx="70" ry="25" stroke="#61DAFB" stroke-width="4" transform="rotate(0 100 100)"/>
  <ellipse cx="100" cy="100" rx="70" ry="25" stroke="#61DAFB" stroke-width="4" transform="rotate(60 100 100)"/>
  <ellipse cx="100" cy="100" rx="70" ry="25" stroke="#61DAFB" stroke-width="4" transform="rotate(120 100 100)"/>
  
  <!-- Center Speedometer -->
  <circle cx="100" cy="100" r="35" fill="#20232A"/>
  <path d="M100 75 L100 85 M75 100 L85 100 M115 100 L125 100 M100 115 L100 125" stroke="#61DAFB" stroke-width="3"/>
  <path d="M100 100 L120 85" stroke="#FF6B6B" stroke-width="4"/>
  <circle cx="100" cy="100" r="5" fill="#61DAFB"/>
  
  <!-- Performance Indicator Dots -->
  <circle cx="140" cy="60" r="4" fill="#51CF66"/>
  <circle cx="60" cy="140" r="4" fill="#FF6B6B"/>
  <circle cx="140" cy="140" r="4" fill="#FFD43B"/>
</svg>
